PathFileType	4	(X/Y/Z)	C:\Users\Basilio\Documents\Thesis Gigler\squatting_fais\c3dfiles\054\SJ_pre1\markers_experimental.trc
DataRate	CameraRate	NumFrames	NumMarkers	Units	OrigDataRate	OrigDataStartFrame	OrigNumFrames
200.000000	200.000000	4	61	mm	200.000000	1476	1968
Frame#	Time	FHD			LBHD			RBHD			C7			T10			CLAV			LSHO			LUUPA			LMUPA			LDUPA			LLEP			LMEP			LRAD			LUL			LRFIN			RSHO			RUPA1			RMUPA			RDUPA			RLEP			RMEP			RRAD			RUL			RUFIN			LASI			RASI			USACR			LSACR			RSACR			LTHI1			LTHI2			LTHI3			LTHI4			LLFC			LMFC			LTIB1			LTIB2			LTIB3			LTIB4			LLMAL			LMMAL			LHEE			LMT1			LMT2			LMT5			RTHI			RTHI2			RTHI3			RTHI4			RLFC			RMFC			RTIB1			RTIB2			RTIB3			RTIB4			RLMAL			RMMAL			RHEE			RMT1			RMT2			RMT5			
		X1	Y1	Z1	X2	Y2	Z2	X3	Y3	Z3	X4	Y4	Z4	X5	Y5	Z5	X6	Y6	Z6	X7	Y7	Z7	X8	Y8	Z8	X9	Y9	Z9	X10	Y10	Z10	X11	Y11	Z11	X12	Y12	Z12	X13	Y13	Z13	X14	Y14	Z14	X15	Y15	Z15	X16	Y16	Z16	X17	Y17	Z17	X18	Y18	Z18	X19	Y19	Z19	X20	Y20	Z20	X21	Y21	Z21	X22	Y22	Z22	X23	Y23	Z23	X24	Y24	Z24	X25	Y25	Z25	X26	Y26	Z26	X27	Y27	Z27	X28	Y28	Z28	X29	Y29	Z29	X30	Y30	Z30	X31	Y31	Z31	X32	Y32	Z32	X33	Y33	Z33	X34	Y34	Z34	X35	Y35	Z35	X36	Y36	Z36	X37	Y37	Z37	X38	Y38	Z38	X39	Y39	Z39	X40	Y40	Z40	X41	Y41	Z41	X42	Y42	Z42	X43	Y43	Z43	X44	Y44	Z44	X45	Y45	Z45	X46	Y46	Z46	X47	Y47	Z47	X48	Y48	Z48	X49	Y49	Z49	X50	Y50	Z50	X51	Y51	Z51	X52	Y52	Z52	X53	Y53	Z53	X54	Y54	Z54	X55	Y55	Z55	X56	Y56	Z56	X57	Y57	Z57	X58	Y58	Z58	X59	Y59	Z59	X60	Y60	Z60	X61	Y61	Z61	

1477	7.38	82.89717864990236	1285.579345703125	-913.4766845703127	-85.24211883544923	1243.708374023438	-982.7695312500002	-99.539421081543	1243.471557617188	-843.744567871094	-154.5733947753907	1157.556396484375	-900.2158813476565	-415.0531616210939	938.6700439453127	-923.829772949219	-80.55513000488283	1011.730163574219	-910.3989257812502	-71.75960540771486	1095.579345703125	-1059.918823242188	-210.2460937500001	1077.413818359375	-1243.947021484375	-210.4879302978516	1026.581665039063	-1254.376831054688	-252.0303192138672	1047.550048828125	-1293.140380859375	-294.4627990722657	1000.266418457031	-1317.660400390625	-361.7146301269532	1043.08935546875	-1276.973510742188	-437.1842346191407	840.4418945312502	-1157.180786132813	-429.7047424316407	783.1738891601565	-1206.781494140625	-390.4483337402345	809.917663574219	-1117.408081054688	-69.1813201904297	1076.491577148438	-749.1092529296876	-225.5550537109376	1049.613647460938	-574.0660400390626	-236.3913726806641	1002.349243164063	-565.7872924804689	-280.1576843261719	1028.99951171875	-532.7035522460939	-322.8496398925782	999.998474121094	-518.2267456054689	-376.3468017578126	1047.22119140625	-569.8998413085939	-468.0728454589845	846.3858642578127	-702.0450439453126	-455.6289062500001	791.9653930664065	-646.5504150390626	-412.0790405273439	820.1270141601565	-729.5545043945314	-359.9772644042969	707.0790405273439	-1041.011352539063	-375.1299133300782	718.3938598632814	-780.2210083007815	-482.3377685546876	869.6995849609377	-922.4020996093752	-504.4808654785157	846.1653442382815	-950.3830566406252	-508.046356201172	847.5559082031252	-892.4840087890627	-405.1287841796876	614.5057983398439	-1181.985717773438	-326.4633483886719	593.8095703125001	-1207.7822265625	-297.3874206542969	628.7803955078126	-1195.15234375	-303.2270507812501	539.6718139648439	-1219.027587890625	-191.4187622070313	454.0839843750001	-1242.774169921875	-131.19482421875	437.8826904296876	-1121.987060546875	-192.9899444580079	292.5588989257813	-1212.542114257813	-270.4288635253907	276.0116882324219	-1254.528686523438	-232.7742462158204	257.4199829101563	-1238.922729492188	-262.9450378417969	186.9495239257813	-1201.980834960938	-384.4354858398439	88.02876281738283	-1226.540893554688	-324.7212219238282	94.25630187988283	-1146.16552734375	-438.4865722656251	51.24332427978517	-1152.709716796875	-223.0328521728516	52.77608871459962	-1212.036865234375	-234.3965911865235	57.08939361572267	-1260.3935546875	-299.6945800781251	38.13805389404298	-1294.614135742188	-383.0395812988282	579.1767578125001	-626.0965576171876	-319.0653076171876	576.3132934570314	-604.5070800781251	-296.0015869140626	599.8213500976564	-607.9669189453126	-277.8563537597657	504.5959472656251	-587.5830688476564	-236.9229125976563	450.2757873535157	-571.2355346679689	-154.0358123779297	447.0237426757814	-681.7839355468751	-218.1737060546876	343.1226501464844	-561.2527465820314	-322.1341552734376	308.1528930664063	-562.6771850585939	-282.8250732421876	283.5391845703126	-559.0115356445314	-283.7063598632813	231.8585357666016	-583.3314208984376	-413.1709594726564	92.06980895996095	-595.9368896484376	-348.3103027343751	96.42788696289065	-665.9607543945314	-461.0390930175782	50.07557296752931	-674.4229125976564	-246.9693908691407	51.78261566162111	-594.3814086914064	-266.5245056152344	53.98520660400392	-550.1677856445314	-330.3821411132813	34.80890274047852	-523.0932006835939	
1478	7.385	86.69252014160158	1274.418823242188	-913.676452636719	-82.19844818115236	1233.748657226563	-983.023376464844	-96.49964141845706	1233.624633789063	-843.7236328125002	-152.0208740234375	1148.147216796875	-900.2770996093752	-414.8379211425782	932.2626953125002	-923.996032714844	-79.56146240234376	1001.793273925781	-910.3335571289065	-69.6278533935547	1085.279541015625	-1060.123168945313	-209.2984924316407	1069.8291015625	-1243.893920898438	-209.5304107666016	1019.068176269531	-1254.829223632813	-251.0026550292969	1040.189208984375	-1292.99951171875	-293.9260559082032	993.2686767578127	-1317.969970703125	-360.4325561523438	1036.48779296875	-1276.1845703125	-437.9093322753907	834.3197021484377	-1157.241943359375	-430.9988403320314	777.2889404296877	-1206.665283203125	-391.430389404297	803.7893066406252	-1117.197875976563	-67.41794586181642	1066.524169921875	-749.1483764648439	-224.4503326416016	1041.31884765625	-573.8724975585939	-235.4356689453126	993.977233886719	-565.8285522460939	-279.2512817382813	1021.189514160156	-532.6710205078126	-322.6360778808594	992.5962524414065	-518.4152221679689	-375.5133056640626	1040.511840820313	-569.9826049804689	-468.6810913085939	840.949890136719	-702.7379760742189	-456.7907714843751	786.110290527344	-647.5031127929689	-412.6202392578126	814.596618652344	-730.0642700195314	-361.7557067871094	700.5783081054689	-1041.349609375	-377.2274780273438	712.6967163085939	-780.0722656250002	-482.7056274414064	864.186950683594	-922.7186279296877	-505.3555908203126	840.955505371094	-950.9204101562502	-508.9027404785157	842.3269653320315	-892.974548339844	-407.5368652343751	611.1177978515626	-1182.201416015625	-328.7791442871094	591.8369140625001	-1208.494750976563	-300.0067138671876	626.8813476562501	-1195.402954101563	-304.5076599121094	537.9057617187501	-1219.889404296875	-192.2406311035157	454.0669555664064	-1243.490600585938	-130.0257110595703	437.477752685547	-1122.949584960938	-193.1388702392579	292.5825805664063	-1212.831665039063	-270.4881286621094	275.8462219238282	-1254.88818359375	-232.7788696289063	257.4028625488282	-1239.341674804688	-263.0292968750001	186.9824981689453	-1202.153198242188	-384.5220642089845	88.04277801513673	-1226.641357421875	-324.7787780761719	94.44407653808595	-1146.390258789063	-438.4456176757814	51.28386688232423	-1152.70166015625	-223.0296173095704	52.82156372070314	-1212.01806640625	-234.4287109375001	57.11964035034181	-1260.443359375	-299.7212829589844	38.14347076416016	-1294.67431640625	-385.2881469726564	576.5068359375001	-626.1571655273439	-321.4035339355469	574.7466430664064	-604.2537841796876	-298.5232849121094	598.4352416992189	-607.9553833007814	-278.9803466796876	503.7547607421876	-587.2139282226564	-237.5882873535157	450.3427124023439	-570.6600341796876	-153.6373596191407	447.3917846679689	-681.2639770507814	-218.5607604980469	343.2589721679688	-560.8383789062501	-322.3220214843751	308.2546081542969	-562.4746704101564	-283.0150756835938	283.7050170898438	-558.6768798828126	-283.8457031250001	232.0370025634766	-583.1483764648439	-413.154022216797	92.16037750244142	-595.9790039062501	-348.2801208496094	96.55985260009768	-665.8762817382814	-461.0323181152345	50.15036392211915	-674.4649658203126	-246.9554595947266	51.76505661010744	-594.4191894531251	-266.5740356445313	53.99662017822267	-550.2412719726564	-330.3675842285157	34.90342712402344	-523.1525878906251	
1479	7.390000000000001	89.69243621826173	1263.264892578125	-913.5120849609377	-78.92842864990236	1223.491455078125	-983.0156250000002	-93.57708740234376	1223.767944335938	-843.8118286132815	-149.4075927734375	1138.9794921875	-900.533386230469	-414.4981689453126	926.0891113281252	-924.2947387695315	-77.79624176025392	992.248229980469	-910.2061767578127	-67.74603271484376	1075.55517578125	-1060.216552734375	-208.1365814208985	1061.95654296875	-1243.904907226563	-208.8402709960938	1011.132873535156	-1255.000854492188	-250.7556762695313	1033.039306640625	-1293.067138671875	-293.8976135253907	986.4951782226565	-1317.897338867188	-359.5721130371094	1029.854248046875	-1275.389282226563	-438.7806396484376	828.644226074219	-1156.945678710938	-432.3081054687501	771.362487792969	-1206.700561523438	-391.9427185058595	797.524841308594	-1117.417846679688	-66.19493103027345	1056.790283203125	-748.9704589843751	-223.1919708251954	1032.923095703125	-573.7482299804689	-235.3056030273438	985.7881469726565	-565.8002929687501	-278.4466247558594	1013.275939941406	-532.7857666015626	-322.0004882812501	985.2026367187502	-518.7202148437501	-374.3848571777344	1033.838500976563	-570.1172485351564	-469.877899169922	835.4272460937502	-703.4003906250001	-458.0799865722657	780.3334960937502	-648.3905639648439	-414.2107543945314	808.476257324219	-730.7090454101564	-363.1281738281251	694.3613891601564	-1041.59326171875	-378.2736816406251	707.2901000976564	-779.9836425781252	-483.1379394531251	858.8735351562502	-923.2674560546877	-507.3348083496095	836.3833007812502	-951.024597167969	-510.744354248047	837.6711425781252	-893.3899536132815	-409.8544921875001	607.4509277343751	-1181.87744140625	-330.7539978027344	589.2259521484376	-1207.886840820313	-302.3277282714844	624.8258056640626	-1195.924194335938	-305.8679199218751	535.8195800781251	-1220.483154296875	-193.0061492919922	454.2024536132814	-1244.495849609375	-129.8877410888672	437.792938232422	-1123.659790039063	-193.3104248046876	292.8996887207032	-1213.157470703125	-270.8859252929688	275.6634521484376	-1255.445678710938	-233.1055450439454	257.4878845214844	-1239.308837890625	-263.1622009277344	187.0482025146485	-1202.39013671875	-384.6483764648439	87.94724273681642	-1226.78125	-324.8248596191407	94.59183502197267	-1146.652221679688	-438.4674072265626	51.23414611816408	-1152.714477539063	-223.0938873291016	52.83442306518556	-1212.07373046875	-234.4420013427735	57.142635345459	-1260.512817382813	-299.6917419433594	38.09362411499024	-1294.705932617188	-387.5014038085939	574.1761474609376	-626.0821533203126	-323.5435180664063	573.1365966796876	-604.2176513671876	-301.1101379394532	597.2734375000001	-607.8809814453126	-280.4864501953126	502.8865966796876	-586.7214965820314	-238.3149719238282	450.4407653808595	-569.9505004882814	-153.7684936523438	447.7605285644532	-680.7825927734376	-219.1808166503907	343.4963684082032	-560.2189331054689	-322.8084411621094	308.3857727050782	-562.0929565429689	-283.3880920410157	283.8094482421876	-558.2279663085939	-284.2050476074219	232.1165618896485	-582.9239501953126	-413.1452636718751	92.16707611083986	-595.9414672851564	-348.2463073730469	96.68308258056643	-665.8034057617189	-461.0021972656251	50.16798019409181	-674.5039062500001	-246.7525177001954	51.97870254516603	-594.2956542968751	-266.5855407714844	54.01953887939455	-550.2427978515626	-330.3858337402344	34.93641662597657	-523.2028808593751	
1480	7.395	92.84381103515626	1252.720458984375	-913.5075683593752	-75.98616027832033	1213.907958984375	-982.9694824218752	-90.5099563598633	1214.405029296875	-844.0664062500002	-146.8861236572266	1130.189575195313	-900.5592041015627	-414.0846252441407	919.986999511719	-924.5599365234377	-77.14098358154298	982.593444824219	-909.8680419921877	-65.88964080810548	1065.854370117188	-1060.390502929688	-207.0211334228516	1054.215698242188	-1243.898559570313	-207.8616638183594	1003.346801757813	-1255.128540039063	-250.0435943603516	1025.689453125	-1292.958374023438	-293.3197326660157	979.4531250000002	-1317.885009765625	-358.4303894042969	1023.157287597656	-1274.677734375	-439.7209777832032	822.8221435546877	-1156.548461914063	-433.6361389160157	765.4642333984376	-1206.387329101563	-393.2394104003907	791.5522460937502	-1117.166625976563	-64.55501556396486	1047.462280273438	-748.9004516601564	-222.2503509521485	1024.645629882813	-573.8319702148439	-234.9200286865235	977.7000732421877	-566.6780395507814	-277.6518859863282	1005.477600097656	-532.8720703125001	-321.7958374023438	977.897644042969	-519.2053833007814	-373.7057495117188	1027.179321289063	-570.6380004882814	-470.6016235351564	830.0686645507815	-704.1496582031251	-459.6329956054689	774.639831542969	-649.3583984375001	-414.8828125000001	802.735534667969	-731.0678100585939	-364.9726562500001	688.3173828125001	-1041.789428710938	-380.1666870117188	702.1513671875001	-780.0230102539065	-483.5219116210939	853.7051391601565	-923.5775146484377	-507.2554626464845	831.3378906250002	-951.6717529296877	-510.2109375000001	832.5502929687502	-893.9791259765627	-412.1699829101564	603.9941406250001	-1182.482666015625	-332.7981262207032	587.0053100585939	-1208.7412109375	-305.0503234863282	623.0492553710939	-1196.69580078125	-307.5101013183594	534.0587158203126	-1221.424194335938	-193.8381805419922	454.1834716796876	-1245.281005859375	-131.1119384765625	438.3954467773439	-1124.021118164063	-193.6494903564454	293.0117797851563	-1213.849243164063	-271.2725830078126	275.5848388671876	-1256.108520507813	-233.5829162597657	257.4632263183594	-1239.796142578125	-263.3706970214844	187.0648651123047	-1202.795654296875	-384.8721008300782	87.81490325927736	-1226.862060546875	-325.1329040527344	94.69418334960939	-1146.764770507813	-438.4961853027345	51.15007400512697	-1152.706420898438	-223.2023010253907	52.88735580444337	-1212.13037109375	-234.5498657226563	57.12681579589845	-1260.531616210938	-299.8401794433594	38.02040481567384	-1294.741088867188	-390.1264648437501	571.9735107421876	-625.8056030273439	-326.2705383300782	571.9912719726564	-603.9182128906251	-303.7199707031251	596.0487060546876	-607.7492675781251	-282.2102355957032	502.2298278808595	-586.1258544921876	-239.0635528564454	450.643768310547	-569.2948608398439	-154.6844177246094	448.1297607421876	-680.1549682617189	-219.6570739746094	343.6271362304688	-559.5848999023439	-323.3263244628907	308.5300903320313	-561.7232666015626	-283.6457824707032	283.9482421875001	-557.8079833984376	-284.7750854492188	232.2442626953126	-582.3845825195314	-413.2279052734376	92.15475463867189	-595.9479980468751	-348.2908325195313	96.70849609375003	-665.6950683593751	-460.9725036621095	50.1477508544922	-674.5661621093751	-246.7508850097657	52.00524902343751	-594.2515869140626	-266.4864501953126	54.12049102783205	-550.3037109375001	-330.3766784667969	34.93744659423829	-523.1901855468751	
